<?xml version="1.0" encoding="UTF-8" standalone="no"?><!DOCTYPE svg PUBLIC "-//W3C//DTD SVG 1.1//EN" "http://www.w3.org/Graphics/SVG/1.1/DTD/svg11.dtd"><svg width="100%" height="100%" viewBox="0 0 32 32" version="1.1" xmlns="http://www.w3.org/2000/svg" xmlns:xlink="http://www.w3.org/1999/xlink" xml:space="preserve" xmlns:serif="http://www.serif.com/" style="fill-rule:evenodd;clip-rule:evenodd;stroke-linejoin:round;stroke-miterlimit:2;"><g><path d="M32,2.022c-0,-1.116 -0.906,-2.022 -2.022,-2.022l-27.956,-0c-1.116,-0 -2.022,0.906 -2.022,2.022l-0,27.956c-0,1.116 0.906,2.022 2.022,2.022l27.956,-0c1.116,-0 2.022,-0.906 2.022,-2.022l-0,-27.956Z" style="fill:#6f7685;"/><path d="M32,9.033c-0,-1.122 -0.911,-2.033 -2.033,-2.033l-27.934,-0c-1.122,-0 -2.033,0.911 -2.033,2.033l0,13.934c0,1.122 0.911,2.033 2.033,2.033l27.934,-0c1.122,-0 2.033,-0.911 2.033,-2.033l-0,-13.934Z" style="fill:#fff;"/><rect x="3.048" y="13.058" width="3.952" height="1" style="fill:#c7cad1;"/><rect x="3" y="11" width="5" height="1" style="fill:#c7cad1;"/><rect x="18" y="11" width="9" height="1" style="fill:#c7cad1;"/><rect x="18" y="19.941" width="9" height="1" style="fill:#c7cad1;"/><rect x="18" y="14" width="6" height="1" style="fill:#c7cad1;"/><rect x="18" y="16.941" width="7" height="1.059" style="fill:#c7cad1;"/></g></svg>